<?xml version="1.0" encoding="UTF-8"?>
<svg id="Layer_1" data-name="Layer 1" xmlns="http://www.w3.org/2000/svg" viewBox="0 0 450.38 442.95">
  <defs>
    <style>
      .cls-1 {
        fill: #c9a36a;
        stroke-width: 0px;
      }
    </style>
  </defs>
  <path class="cls-1" d="m180.95,442.95c-15.02,0-29.03-5.59-39.39-15.75-13.14-12.85-18.75-32.43-14.65-51.09,3.89-17.7,15.56-31.23,32.04-37.1,22.54-8.04,47.3-1.75,62.29,15.43,10.65,12.21,15.46,28.69,13.21,45.23-3.44,25.09-25.94,43.29-53.5,43.29Zm-1.7-82.51c-3.92,0-7.94.71-11.9,2.12-11.2,4-14.85,13.56-16.02,18.91-2.26,10.31.7,20.99,7.71,27.86,5.68,5.56,13.46,8.61,21.91,8.61,12.8,0,26.79-7.45,28.73-21.68,1.3-9.51-1.29-18.54-7.26-25.4-5.8-6.64-14.24-10.44-23.16-10.44Z"/>
  <path class="cls-1" d="m346.04,442.95c-15.04,0-29.02-5.59-39.4-15.75-13.14-12.86-18.75-32.44-14.65-51.09,3.89-17.7,15.56-31.23,32.04-37.1,22.53-8.05,47.29-1.75,62.29,15.43,10.66,12.21,15.46,28.69,13.21,45.23-3.44,25.09-25.92,43.29-53.49,43.29Zm-1.71-82.51c-3.92,0-7.94.71-11.9,2.12-11.2,4-14.85,13.56-16.03,18.91-2.26,10.31.7,20.99,7.71,27.86,5.67,5.56,13.46,8.61,21.93,8.61,12.79,0,26.77-7.45,28.71-21.68,1.3-9.51-1.29-18.54-7.26-25.4-5.8-6.64-14.24-10.44-23.16-10.44Z"/>
  <path class="cls-1" d="m299.19,319.33c-13.35,0-26.59-.33-38.66-.62l-17.72-.36c-35.25-.47-94.26-1.28-116.48-31.76-11.45-15.76-20.32-46.4-22.62-78.09-1.15-15.71-1.52-32.61-1.87-48.96-1.31-59.21-2.69-120.45-39.61-131.01-15.07-4.3-27.44-3.75-46.1-2.95l-3.08.14C6.37,26.01.3,20.65.01,13.74-.28,6.84,5.06,1.01,11.96.71l3.06-.14c19.6-.85,35.11-1.54,54.05,3.9,29.08,8.31,43.13,32.18,50.15,62.99,4.9-.05,12.86-.16,22.97-.29,50.9-.69,156.84-2.09,198.54-1.11,6.26.14,12.38.2,18.29.25,44.43.41,90.36.84,91.32,50.63.79,42.01-13.46,92.21-17.86,106.61-1.18,3.86-2.27,7.64-3.35,11.32-5.06,17.35-9.84,33.72-19.65,48.9-11.11,17.16-29.3,28.24-52.62,32.04-17.04,2.75-37.49,3.51-57.68,3.51ZM123.35,92.4c2.44,21.05,2.95,43.94,3.45,66.56.35,16.04.73,32.63,1.82,47.7,1.92,26.52,9.29,53.33,17.91,65.19,14.85,20.36,70.06,21.11,96.61,21.47l18.01.36c29.27.74,65.71,1.65,91.67-2.58,16.16-2.62,28.49-9.88,35.65-20.94,7.84-12.11,11.91-26.1,16.65-42.31,1.1-3.79,2.23-7.66,3.44-11.63,8.49-27.82,17.35-68.39,16.76-98.84-.43-22.49-13.78-25.61-66.55-26.1-6.02-.05-12.25-.11-18.64-.26-41.2-.95-146.86.45-197.63,1.11-7.77.11-14.31.19-19.17.25Z"/>
</svg>